PathFileType	3	(X/Y/Z)	D:\minhoCalibration\240510\subject1_KPNP\preferred\preferred11.trc
DataRate	CameraRate	NumFrames	NumMarkers	Units	OrigDataRate	OrigDataStartFrame	OrigNumFrames
200.0	200.0	18	10	mm	200.0	531	246	
Frame#	Time	Left_Ankle_Outer1			Left_Ankle_Inner1			Left_Knee_Outer1			Left_Knee_Inner1			Left_Wrist1			Right_Wrist1			Right_Knee_Inner1			Right_Knee_Outer1			Right_Ankle_Inner1			Right_Ankle_Outer1			
		X1	Y1	Z1	X2	Y2	Z2	X3	Y3	Z3	X4	Y4	Z4	X5	Y5	Z5	X6	Y6	Z6	X7	Y7	Z7	X8	Y8	Z8	X9	Y9	Z9	X10	Y10	Z10	
531	2.645	-520.54724	96.78672	-557.92395	-570.0741	105.46535	-526.35516	-386.32843	506.59024	-386.2005	-496.51016	486.19205	-369.97916	-373.61823	960.92175	-542.67212	-713.60425	993.07996	-463.64929	-640.42273	511.33667	-363.60904	-749.35797	552.49225	-348.26736	-792.30182	131.03639	-513.21747	-895.23077	131.80702	-480.91754
532	2.65	-521.41815	96.020874	-558.23456	-571.00555	104.54833	-526.59491	-387.47235	505.97833	-386.05618	-497.88086	485.2731	-370.34	-374.2016	960.00061	-542.21686	-716.06879	991.77643	-461.48181	-644.8396	510.10632	-375.1669	-753.74042	550.85217	-361.56766	-791.48029	125.93798	-517.52954	-894.67236	126.89349	-486.20056
533	2.655	-522.11871	95.492416	-558.45831	-571.74152	103.97032	-526.72797	-388.55338	505.2619	-386.0397	-498.78909	484.59824	-370.82495	-374.76111	959.17474	-541.8407	-717.85577	990.43066	-465.70087	-648.13593	509.61221	-386.79578	-758.37817	550.61469	-373.62201	-789.91003	121.53351	-520.5448	-893.05652	122.47919	-489.6145
534	2.66	-522.50104	95.287804	-558.54675	-572.22699	103.63284	-526.76019	-389.73511	504.80515	-385.96149	-500.10138	484.05173	-370.92783	-375.29059	958.51813	-541.44989	-719.47064	990.74939	-470.06876	-651.01318	510.56076	-396.9292	-762.43597	550.48914	-384.92032	-787.62231	117.77657	-522.80316	-890.77844	118.98974	-492.28262
535	2.665	-522.78778	95.254677	-558.36761	-572.46857	103.57956	-526.59821	-390.9469	504.83084	-385.86432	-500.90088	484.07004	-371.10278	-375.74274	958.12317	-540.90839	-722.34454	990.63098	-475.28625	-653.61304	511.73639	-406.59192	-765.87805	551.08734	-394.79547	-785.40668	114.75327	-524.29645	-888.47351	116.18872	-494.97498
536	2.67	-522.66162	95.516418	-558.11285	-572.51971	103.6497	-526.58423	-392.20148	505.30292	-385.76907	-502.20352	484.51471	-370.87448	-376.0242	958.01941	-540.37219	-721.62659	991.97241	-479.89725	-655.69928	514.77557	-411.9881	-768.71753	551.65265	-404.2623	-783.31586	112.62228	-525.34735	-886.55164	114.23893	-497.31854
537	2.675	-522.39142	95.779251	-557.98718	-572.35059	103.86563	-526.52374	-393.53818	506.20877	-385.88034	-502.53421	485.74063	-371.40329	-376.21024	958.23932	-539.63086	-723.69739	993.53021	-486.39413	-658.56903	517.29565	-419.19937	-771.16156	552.48712	-413.8273	-782.06464	111.23903	-526.3833	-885.4826	112.54792	-498.75806
538	2.68	-522.01752	96.116432	-557.85968	-572.00781	104.15704	-526.61975	-395.03369	507.3468	-386.18884	-503.88531	486.42352	-372.19727	-376.31052	958.72656	-538.79126	-724.91803	995.25842	-492.30814	-661.4801	519.77161	-426.0708	-773.99768	553.7677	-423.32599	-781.80823	110.06319	-527.22687	-884.78632	112.0346	-499.4975
539	2.685	-521.58374	96.480919	-557.95319	-571.69403	104.5637	-526.85089	-396.65826	508.74673	-386.80902	-505.12509	487.93347	-373.06149	-376.4379	959.52264	-537.75275	-724.67554	997.46356	-498.68417	-664.37091	521.95874	-432.68338	-776.97119	555.38562	-433.16287	-781.8678	109.70226	-527.79114	-884.63208	111.97812	-499.90536
540	2.69	-521.26251	96.748711	-557.96472	-571.43109	104.87394	-527.263	-398.4299	510.19287	-387.76471	-506.61557	488.98782	-374.96487	-376.6622	960.4892	-536.51892	-726.46747	999.78949	-505.42587	-667.39996	523.77386	-439.04584	-780.03339	557.25128	-443.03223	-782.09253	109.98604	-527.96899	-885.13708	112.45995	-500.51605
541	2.695	-520.97833	96.929855	-558.0799	-571.19232	105.17311	-527.73669	-400.28342	511.76089	-389.10034	-507.60657	490.65891	-377.5903	-376.97284	962.19525	-535.17297	-726.68134	1001.4515	-512.32642	-670.49261	525.21106	-445.09494	-783.14288	559.20636	-452.73175	-782.42664	110.73689	-528.02252	-885.38855	112.6069	-501.07755
542	2.7	-520.91718	96.832222	-558.0116	-570.93127	105.36534	-528.13708	-402.16858	513.29724	-390.94122	-509.77539	492.11636	-379.84146	-377.02509	963.87994	-533.93683	-726.94104	1004.0911	-518.96881	-673.80347	526.53876	-450.7146	-786.11353	560.85974	-462.29761	-782.67352	111.71461	-528.05139	-885.94287	113.20689	-501.88358
543	2.705	-520.82599	96.836884	-558.38391	-570.85748	105.40243	-528.81171	-404.19122	514.80713	-393.0845	-511.74713	493.49905	-383.17529	-377.01227	965.78357	-532.58899	-727.39355	1005.9183	-525.51343	-677.20038	527.85583	-455.83591	-789.35779	562.82623	-471.61523	-783.01135	112.81109	-528.24792	-886.47528	114.01776	-502.66473
544	2.71	-520.57739	97.057449	-559.16949	-570.83752	105.4593	-529.44312	-406.3367	516.20239	-395.5397	-513.83624	494.83157	-386.86096	-376.95526	967.8642	-531.2453	-727.42657	1008.2662	-532.23346	-680.76575	529.28516	-460.15906	-792.14087	564.2207	-480.59393	-783.34802	114.15041	-528.79376	-887.03204	114.362	-504.06577
545	2.715	-520.58173	96.903732	-559.77997	-570.70795	105.39414	-530.07288	-408.444	517.49969	-398.30252	-515.63519	495.64551	-392.12738	-377.23373	970.146	-529.61719	-727.74377	1010.1072	-538.79681	-684.33508	530.73999	-463.58713	-794.87457	565.8913	-488.8508	-784.08081	115.4119	-529.72815	-888.33087	115.20526	-506.08844
546	2.72	-520.53333	96.713661	-560.41315	-570.62701	105.22159	-530.914	-410.55417	518.80298	-401.33633	-517.81891	496.69049	-396.8121	-379.42413	972.62842	-526.93451	-728.0213	1011.8126	-545.30774	-688.00171	532.12598	-466.23178	-797.33606	567.1861	-496.35428	-785.11035	116.84048	-531.31964	-889.78387	115.94627	-508.4617
547	2.725	-520.43671	96.472061	-561.0932	-570.59863	105.01547	-531.81934	-412.71484	519.91962	-404.49789	-520.13495	497.76758	-401.59204	-379.97537	974.97168	-525.28717	-728.21362	1013.3752	-551.83002	-691.71918	533.47064	-468.26285	-799.9267	568.32239	-502.9928	-786.37518	118.21084	-533.78192	-891.33612	116.96079	-511.64703
548	2.73	-520.33368	96.187546	-561.83307	-570.46234	104.77567	-532.68243	-414.96744	521.00824	-407.80157	-522.40839	498.76129	-406.39978	-378.66031	977.4906	-524.92194	-728.37256	1014.8343	-558.29456	-695.02612	534.97894	-470.06497	-802.16711	569.37976	-508.75385	-787.43823	119.82775	-536.77051	-892.92261	118.37594	-515.58569
